<svg xmlns="http://www.w3.org/2000/svg" xmlns:xlink="http://www.w3.org/1999/xlink" width="18" height="18" viewBox="0 0 18 18">
    <defs>
        <path id="a" d="M14.143 8.375v1.25a.477.477 0 0 1-.482.469h-3.536v3.437a.477.477 0 0 1-.482.469H8.357a.477.477 0 0 1-.482-.469v-3.437H4.339a.477.477 0 0 1-.482-.469v-1.25c0-.258.217-.469.482-.469h3.536V4.47c0-.258.217-.469.482-.469h1.286c.265 0 .482.21.482.469v3.437h3.536c.265 0 .482.211.482.469zM18 2.125v13.75c0 1.035-.864 1.875-1.929 1.875H1.93C.864 17.75 0 16.91 0 15.875V2.125C0 1.09.864.25 1.929.25H16.07C17.136.25 18 1.09 18 2.125zm-1.929 13.516V2.359a.238.238 0 0 0-.24-.234H2.17a.238.238 0 0 0-.241.234v13.282c0 .129.108.234.24.234H15.83a.238.238 0 0 0 .241-.234z"/>
    </defs>
    <use fill="#68C981" fill-rule="nonzero" xlink:href="#a"/>
</svg>
